<?xml version="1.0" standalone="no"?>
<!DOCTYPE svg PUBLIC "-//W3C//DTD SVG 20010904//EN"
 "http://www.w3.org/TR/2001/REC-SVG-20010904/DTD/svg10.dtd">
<svg version="1.0" xmlns="http://www.w3.org/2000/svg"
 width="3886.000000pt" height="3886.000000pt" viewBox="0 0 3886.000000 3886.000000"
 preserveAspectRatio="xMidYMid meet">

<g transform="translate(0.000000,3886.000000) scale(0.100000,-0.100000)"
fill="#000000" stroke="none">
<path d="M18865 36929 c-2197 -84 -4311 -562 -6315 -1427 -2452 -1059 -4627
-2664 -6388 -4712 -2430 -2827 -3899 -6368 -4182 -10080 -35 -466 -41 -624
-47 -1185 -7 -701 11 -1193 68 -1810 340 -3738 1872 -7267 4373 -10075 468
-526 1092 -1143 1610 -1593 1908 -1656 4106 -2866 6516 -3586 1754 -524 3642
-774 5463 -723 442 13 601 20 952 47 2595 200 5109 977 7383 2281 1793 1029
3412 2390 4760 4003 104 124 143 177 136 186 -10 14 -1662 1435 -1668 1435 -2
0 -55 -62 -118 -137 -538 -654 -1204 -1333 -1848 -1888 -3068 -2640 -7014
-3957 -11055 -3690 -2374 158 -4659 858 -6712 2056 -2867 1674 -5133 4241
-6430 7284 -641 1503 -1036 3096 -1172 4725 -41 489 -46 623 -46 1295 0 672 5
806 46 1295 214 2560 1057 4996 2474 7151 1224 1861 2862 3458 4755 4636 679
422 1431 811 2180 1126 2273 956 4765 1343 7265 1131 1110 -94 2272 -326 3318
-661 153 -49 210 -64 216 -55 4 7 103 488 221 1070 117 581 215 1066 217 1078
4 18 -11 25 -164 72 -1304 400 -2689 649 -4083 732 -496 29 -1243 38 -1725 19z"/>
<path d="M18980 33733 c-640 -27 -1064 -64 -1612 -143 -2700 -389 -5271 -1557
-7337 -3334 -306 -263 -509 -452 -832 -775 -431 -432 -709 -741 -1062 -1181
-2294 -2856 -3407 -6433 -3152 -10120 204 -2930 1304 -5739 3152 -8040 353
-440 631 -749 1062 -1181 574 -574 1096 -1023 1718 -1477 2110 -1541 4608
-2484 7208 -2722 764 -69 1616 -78 2380 -25 3725 262 7198 1952 9719 4729 272
299 662 768 653 784 -3 4 -230 200 -504 435 -274 235 -775 664 -1113 954 -338
290 -1328 1139 -2200 1887 -871 749 -1591 1366 -1600 1373 -11 8 -12 16 -5 26
294 429 425 651 619 1047 639 1310 866 2773 660 4245 -204 1458 -869 2849
-1881 3940 -1206 1299 -2817 2110 -4573 2304 -116 13 -175 24 -181 33 -5 7 -9
1638 -9 3624 l0 3611 -142 6 c-134 7 -824 6 -968 0z m-130 -4298 l0 -2954 -32
-5 c-18 -3 -80 -10 -138 -16 -1659 -169 -3268 -952 -4450 -2166 -1881 -1932
-2552 -4704 -1764 -7284 632 -2070 2199 -3791 4206 -4619 706 -291 1396 -457
2213 -533 189 -18 990 -18 1180 0 957 89 1768 308 2591 702 670 321 1349 791
1879 1302 l100 96 2208 -1895 2207 -1895 -126 -131 c-639 -665 -1413 -1305
-2224 -1839 -2530 -1667 -5547 -2406 -8572 -2098 -3823 389 -7276 2429 -9492
5607 -808 1159 -1438 2476 -1831 3828 -930 3201 -615 6634 880 9600 1170 2321
2989 4239 5250 5537 1667 957 3574 1547 5470 1693 110 8 218 17 240 18 22 2
77 4 123 5 l82 2 0 -2955z"/>
<path d="M29910 32168 c-393 -458 -715 -837 -715 -843 0 -6 56 -58 125 -115
416 -345 665 -573 1086 -994 364 -364 553 -568 830 -891 790 -924 1480 -1957
2026 -3032 51 -101 96 -182 100 -180 23 8 1847 1224 1848 1231 0 13 -187 365
-328 616 -1043 1859 -2444 3538 -4107 4923 -77 65 -142 117 -145 117 -3 0
-327 -375 -720 -832z"/>
<path d="M35935 20984 c-594 -45 -1082 -83 -1084 -83 -2 -1 -1 -29 3 -63 86
-855 93 -1854 20 -2763 -79 -984 -264 -2006 -535 -2955 -52 -182 -160 -532
-203 -657 -17 -50 -21 -73 -13 -76 25 -9 2168 -439 2172 -436 7 8 135 431 199
660 460 1650 671 3352 635 5107 -9 448 -19 639 -54 1082 -20 256 -23 270 -43
269 -9 -1 -503 -39 -1097 -85z"/>
</g>
</svg>
